<?xml version="1.0" encoding="UTF-8" standalone="no"?>
<!-- Created with Inkscape (http://www.inkscape.org/) -->

<svg
   width="1166.4539mm"
   height="66.632996mm"
   viewBox="0 0 1166.4539 66.632994"
   xmlns="http://www.w3.org/2000/svg">
  <defs
     id="defs1" />
  <g
     id="layer1"
     transform="translate(291.54095,-184.57216)">
    <path
       fill-rule="nonzero"
       fill="#070b34"
       fill-opacity="1"
       d="m 29.595823,184.57367 c -20.1820404,0.15533 -55.003855,11.13258 -63.129025,13.38748 -63.579286,17.6472 -62.942538,-6.0199 -101.586708,-2.50855 -19.67157,1.78773 -27.44072,8.54695 -40.14939,12.07441 -20.96017,5.81818 -8.21753,14.49293 -29.38487,20.33116 -27.43698,7.74746 -65.66292,11.60055 -86.88678,23.34699 h 1166.4538 c -14.61139,-4.90307 -29.11923,-9.98782 -42.02951,-14.99432 -27.81371,-10.64612 -18.66365,-10.05939 -61.43166,-0.49432 -14.11219,3.14799 -22.61416,8.96105 -41.26843,10.65635 -30.01221,2.72799 -80.23661,-16.46429 -98.29744,-19.10576 -27.06016,-3.95848 -50.26401,13.0772 -81.42346,1.59856 -25.52668,-9.40384 -39.33937,-24.49254 -89.13803,-30.02049 -27.01681,-3.00012 -58.41369,15.20038 -73.48854,18.00428 -14.07829,2.61867 -20.46466,1.3461 -41.7168,5.86339 -6.00016,1.27531 -14.34392,5.30812 -25.96558,4.01746 -51.88417,-5.75918 -53.51938,-8.36171 -88.80266,-17.62045 -6.61247,-1.73464 -16.99456,-2.24193 -23.06636,-3.5668 -4.8378,-1.05628 -67.36967,9.0684 -79.58102,6.40372 -3.89587,-0.8506 -40.950026,-11.56437 -44.957058,-13.04103 -14.338277,-5.28256 -17.154668,-11.68432 -50.326176,-14.21214 -1.20004,-0.0917 -2.479189,-0.12978 -3.824303,-0.11994"
       id="path5"
       style="stroke-width:0.220345" />
  </g>
</svg>
