<?xml version="1.0" encoding="UTF-8" standalone="no"?>
<!-- Created with Inkscape (http://www.inkscape.org/) -->

<svg
   width="1166.4539mm"
   height="196.02348mm"
   viewBox="0 0 1166.4539 196.02348"
   version="1.1"
   id="svg1"
   inkscape:version="1.3.2 (091e20ef0f, 2023-11-25, custom)"
   sodipodi:docname="mountain-3.svg"
   xmlns:inkscape="http://www.inkscape.org/namespaces/inkscape"
   xmlns:sodipodi="http://sodipodi.sourceforge.net/DTD/sodipodi-0.dtd"
   xmlns="http://www.w3.org/2000/svg"
   xmlns:svg="http://www.w3.org/2000/svg">
  <sodipodi:namedview
     id="namedview1"
     pagecolor="#ffffff"
     bordercolor="#000000"
     borderopacity="0.25"
     inkscape:showpageshadow="2"
     inkscape:pageopacity="0.0"
     inkscape:pagecheckerboard="true"
     inkscape:deskcolor="#d1d1d1"
     inkscape:document-units="mm"
     inkscape:zoom="0.26582969"
     inkscape:cx="1579.9589"
     inkscape:cy="421.32239"
     inkscape:window-width="1920"
     inkscape:window-height="1048"
     inkscape:window-x="0"
     inkscape:window-y="0"
     inkscape:window-maximized="1"
     inkscape:current-layer="layer1" />
  <defs
     id="defs1" />
  <g
     inkscape:label="Layer 1"
     inkscape:groupmode="layer"
     id="layer1"
     transform="translate(291.54095,-55.181671)">
    <path
       fill-rule="nonzero"
       fill="#141852"
       fill-opacity="1"
       d="m 183.5873,56.43092 c -15.93118,-0.06718 -33.12331,4.319553 -42.1878,9.676752 -4.69541,2.778249 -16.72593,8.961891 -18.91487,10.029856 -8.06997,3.937211 -23.688059,2.872485 -32.912423,7.372923 -12.157016,5.931251 -22.102885,10.403563 -34.75279,16.576359 -1.070046,0.52099 -25.570636,-4.30441 -38.52247,2.01247 -7.5593118,3.69025 -39.339432,12.1398 -55.212856,23.67415 -17.154406,12.46475 -22.831113,17.08975 -61.642191,30.07657 -15.94891,5.33771 -39.56814,20.12906 -56.70252,24.3078 -3.45663,0.84378 -18.22224,-0.29245 -20.70428,0.9185 -5.76327,2.81183 -14.36821,7.00901 -20.70651,10.10135 -3.09032,1.5099 -17.3453,-0.71811 -20.70427,0.91851 -12.56549,6.13273 -44.07258,36.76822 -50.81933,44.99788 -4.38243,5.34206 -13.25374,10.06453 -20.88632,14.91374 H 874.705 c -3.39888,-2.1262 -6.88214,-4.13216 -10.52085,-5.90744 -11.24679,-5.48607 -28.96731,-6.6743 -39.52816,-12.85685 -13.86647,-8.11703 -16.58829,-19.11415 -31.99546,-26.6311 -17.26095,-8.4214 -29.22488,-11.56685 -47.70684,-19.08165 -15.69806,-6.38295 -23.72135,-14.68088 -36.99953,-21.32484 -19.12358,-9.57169 -69.66102,-17.56959 -74.26323,-20.93597 -27.96162,-20.46375 -6.41149,-13.81436 -42.43194,-31.38827 -3.66088,-1.78609 -36.18034,-6.24539 -39.52818,-4.612 -6.95545,3.39456 -30.47473,-8.15171 -35.76516,-9.18285 -12.2525,-2.390489 -26.7051,-9.114608 -34.55966,-11.668668 -12.56111,-4.084508 -44.72308,-0.739763 -50.74835,2.196608 -8.65374,4.222091 -42.35204,18.22491 -50.30874,22.10471 -2.80173,1.37016 -22.5225,2.9862 -26.25663,3.89821 -3.1658,0.77118 -21.98968,10.39054 -24.46727,9.18066 -7.3595,-3.58735 -7.96779,-13.06806 -16.94128,-17.44609 -7.30844,-3.56569 -28.71865,-6.44684 -36.44671,-8.32934 C 265.29655,97.351885 253.81443,93.403837 246.80794,89.984378 228.98972,81.29219 223.48398,64.147189 198.7436,58.114113 194.06154,56.971405 188.89542,56.452572 183.5873,56.43092"
       id="path4"
       style="stroke-width:0.396976" />
  </g>
</svg>
