<?xml version="1.0" encoding="UTF-8" standalone="no"?>
<!-- Created with Inkscape (http://www.inkscape.org/) -->

<svg
   width="1166.8776mm"
   height="120.30688mm"
   viewBox="0 0 1166.8776 120.30688"
   version="1.1"
   id="svg1"
   xmlns="http://www.w3.org/2000/svg">
  <defs
     id="defs1" />
  <g
     id="layer1"
     transform="matrix(-1,0,0,0.40815434,875.17705,-22.111115)">
    <path
       fill-rule="nonzero"
       fill="#141852"
       fill-opacity="1"
       d="m 88.390969,54.184693 c -0.17465,0.02789 -0.31213,0.104378 -0.41341,0.233574 -25.22016,32.823838 -36.00709,4.888574 -44.03452,10.114095 -16.01761,10.423154 -34.04857,22.80068 -49.2145695,35.960608 -3.2308,2.80395 -13.7087195,-6.60424 -16.4041595,-10.113092 -1.55856,-4.274661 -66.172697,49.935972 -84.75141,60.591642 -3.68246,2.39676 -6.89157,-5.04671 -9.4971,-6.74272 -0.63665,-0.41444 -12.57598,9.42991 -14.67817,10.1141 -6.93808,2.25827 -17.56482,-7.11274 -21.58628,-4.4948 -15.46779,10.06552 -28.16882,24.33751 -46.62454,30.34231 -7.20473,2.34508 -13.69116,-14.12729 -21.58525,-8.99064 -8.31784,5.41258 -20.36568,-4.16616 -28.49335,1.12344 -12.38167,8.05842 -25.51782,15.79954 -38.85448,22.47615 -1.29087,0.64595 -2.62929,1.23195 -3.95428,1.83761 v 54.44627 h 1166.8776 v -31.00586 c -3.34968,-1.82314 -6.09886,-3.41167 -7.23366,-4.39557 -6.42649,-5.57694 -15.10813,-18.6707 -44.29394,-25.46409 -19.05516,12.93255 -56.26944,-10.14203 -73.35883,5.26892 -43.55496,39.27408 -77.6552,2.37299 -118.35556,-11.83183 -11.29233,-3.94186 -13.50719,-9.69655 -22.9371,-19.24121 -12.47264,-12.83745 -12.40649,-12.46643 -25.41344,2.38331 -10.33115,8.96382 -14.68127,10.4893 -27.63035,6.74378 -8.90799,-2.57659 -9.81025,-7.14891 -14.67922,-13.48547 -0.46508,-0.60565 -4.57128,2.99723 -14.08284,7.72975 -15.74583,7.83106 -12.9522,7.4807 -24.40575,3.5078 -16.11789,-5.59242 -11.0598,-0.76584 -27.13014,-6.74272 -20.01843,-7.44453 -41.50238,-17.65578 -58.71374,-32.59027 -4.82864,-4.18994 -7.79486,10.66083 -12.08918,7.86617 -4.02971,-2.62308 -7.27292,-8.6682 -11.22307,-11.23754 -2.05362,-1.33636 -9.31934,13.54336 -16.40417,11.23754 -4.09588,-1.3322 -20.54759,-14.83836 -24.17836,-10.11409 -8.18867,10.65876 -20.51246,16.73283 -31.94535,23.60062 -29.93511,17.98132 -33.99586,2.4815 -60.43869,-8.99068 -2.24895,-0.97565 -6.74997,4.69948 -7.7711,3.37138 -5.5821,-7.26467 -26.34464,-19.81068 -34.53847,-22.47614 -4.22505,-1.37563 -17.09248,4.72323 -19.85716,1.12344 -2.74921,-3.576 -9.35242,-9.50537 -14.67922,-11.23757 -15.25592,-4.96506 -26.56893,-0.4351 -41.44449,-10.11409 C 134.63416,99.95139 93.814929,53.342366 88.390969,54.184693"
       id="path2"
       style="stroke-width:0.264583" />
  </g>
  <rect
     style="fill:#141852;fill-opacity:1;stroke-width:0.30288"
     id="rect1"
     width="1166.8776"
     height="43.65871"
     x="0"
     y="76.64817" />
  <path
     style="fill:none;fill-opacity:1;stroke:none;stroke-width:0.812588;stroke-opacity:1"
     d="M 0.4062944,93.306245 V 77.054468 H 583.43879 1166.4713 V 93.306245 109.55802 H 583.43879 0.4062944 Z"
     id="path5" />
</svg>
